<mxfile host="app.diagrams.net" modified="2023-05-13T10:05:11.261Z" agent="Mozilla/5.0 (Macintosh; Intel Mac OS X 10.15; rv:109.0) Gecko/20100101 Firefox/113.0" etag="u-UDFZVNn8Smj02YYCCa" version="21.3.0">
  <diagram name="Page-1" id="NRlcFQiF_SB_Wmv9kfME">
    <mxGraphModel dx="2593" dy="996" grid="1" gridSize="10" guides="1" tooltips="1" connect="1" arrows="1" fold="1" page="0" pageScale="1" pageWidth="827" pageHeight="1169" math="0" shadow="0">
      <root>
        <mxCell id="0" />
        <mxCell id="1" parent="0" />
        <mxCell id="hm-8KG82vKNdujvCuvrx-4" value="" style="fontStyle=1;align=right;verticalAlign=top;childLayout=stackLayout;horizontal=1;horizontalStack=0;resizeParent=1;resizeParentMax=0;resizeLast=0;marginBottom=0;allowArrows=0;connectable=1;strokeColor=#000000;strokeWidth=1;fontSize=12;fillColor=default;shadow=1;" vertex="1" parent="1">
          <mxGeometry x="-70" y="110" width="720" height="470" as="geometry" />
        </mxCell>
        <mxCell id="hm-8KG82vKNdujvCuvrx-5" value="&lt;span style=&quot;font-weight: normal;&quot;&gt;«component»&lt;/span&gt;&lt;br&gt;&lt;font style=&quot;font-size: 16px;&quot;&gt;backend&lt;/font&gt;" style="html=1;align=center;spacingLeft=4;verticalAlign=middle;strokeColor=none;fillColor=none;fontStyle=1;strokeWidth=1;fontSize=12;" vertex="1" parent="hm-8KG82vKNdujvCuvrx-4">
          <mxGeometry width="720" height="50" as="geometry" />
        </mxCell>
        <mxCell id="hm-8KG82vKNdujvCuvrx-6" value="" style="shape=component;jettyWidth=8;jettyHeight=4;fontSize=12;fillColor=default;strokeColor=default;strokeWidth=1;" vertex="1" parent="hm-8KG82vKNdujvCuvrx-5">
          <mxGeometry x="1" width="24" height="16" relative="1" as="geometry">
            <mxPoint x="-31" y="7" as="offset" />
          </mxGeometry>
        </mxCell>
        <mxCell id="hm-8KG82vKNdujvCuvrx-7" value="internal structure" style="swimlane;swimlaneBody=1;swimlaneHead=1;horizontal=1;swimlaneLine=0;collapsible=0;fontStyle=0;strokeColor=#000000;strokeWidth=1;fontSize=12;fillColor=none;" vertex="1" parent="hm-8KG82vKNdujvCuvrx-4">
          <mxGeometry y="50" width="720" height="250" as="geometry" />
        </mxCell>
        <mxCell id="hm-8KG82vKNdujvCuvrx-22" value="" style="fontStyle=1;align=right;verticalAlign=top;childLayout=stackLayout;horizontal=1;horizontalStack=0;resizeParent=1;resizeParentMax=0;resizeLast=0;marginBottom=0;allowArrows=0;connectable=0;strokeColor=#000000;strokeWidth=1;fontSize=12;fillColor=default;spacingBottom=0;spacingTop=0;shadow=1;" vertex="1" parent="hm-8KG82vKNdujvCuvrx-7">
          <mxGeometry x="330" y="50" width="300" height="67" as="geometry" />
        </mxCell>
        <mxCell id="hm-8KG82vKNdujvCuvrx-23" value="&lt;span style=&quot;font-weight: normal;&quot;&gt;«component»&lt;/span&gt;&lt;br&gt;&lt;font style=&quot;font-size: 16px;&quot;&gt;ksch.patientmanagement.impl&lt;/font&gt;" style="html=1;align=center;spacingLeft=4;verticalAlign=top;strokeColor=none;fillColor=none;fontStyle=1;strokeWidth=1;fontSize=12;spacingTop=8;" vertex="1" parent="hm-8KG82vKNdujvCuvrx-22">
          <mxGeometry width="300" height="67" as="geometry" />
        </mxCell>
        <mxCell id="hm-8KG82vKNdujvCuvrx-24" value="" style="shape=component;jettyWidth=8;jettyHeight=4;fontSize=12;fillColor=default;strokeColor=default;strokeWidth=1;" vertex="1" parent="hm-8KG82vKNdujvCuvrx-23">
          <mxGeometry x="1" width="24" height="16" relative="1" as="geometry">
            <mxPoint x="-31" y="7" as="offset" />
          </mxGeometry>
        </mxCell>
        <mxCell id="hm-8KG82vKNdujvCuvrx-16" value="" style="fontStyle=1;align=right;verticalAlign=top;childLayout=stackLayout;horizontal=1;horizontalStack=0;resizeParent=1;resizeParentMax=0;resizeLast=0;marginBottom=0;allowArrows=0;connectable=0;strokeColor=#000000;strokeWidth=1;fontSize=12;fillColor=default;spacingBottom=0;spacingTop=0;shadow=1;" vertex="1" parent="hm-8KG82vKNdujvCuvrx-7">
          <mxGeometry x="70" y="50" width="200" height="67" as="geometry" />
        </mxCell>
        <mxCell id="hm-8KG82vKNdujvCuvrx-17" value="&lt;span style=&quot;font-weight: normal;&quot;&gt;«component»&lt;/span&gt;&lt;br&gt;&lt;font style=&quot;font-size: 16px;&quot;&gt;test&lt;/font&gt;" style="html=1;align=center;spacingLeft=4;verticalAlign=top;strokeColor=none;fillColor=none;fontStyle=1;strokeWidth=1;fontSize=12;spacingTop=8;" vertex="1" parent="hm-8KG82vKNdujvCuvrx-16">
          <mxGeometry width="200" height="67" as="geometry" />
        </mxCell>
        <mxCell id="hm-8KG82vKNdujvCuvrx-18" value="" style="shape=component;jettyWidth=8;jettyHeight=4;fontSize=12;fillColor=default;strokeColor=default;strokeWidth=1;" vertex="1" parent="hm-8KG82vKNdujvCuvrx-17">
          <mxGeometry x="1" width="24" height="16" relative="1" as="geometry">
            <mxPoint x="-31" y="7" as="offset" />
          </mxGeometry>
        </mxCell>
        <mxCell id="hm-8KG82vKNdujvCuvrx-26" value="" style="endArrow=open;html=1;rounded=0;dashed=1;endFill=0;fontSize=12;endSize=10;startSize=10;jumpStyle=gap;jumpSize=10;" edge="1" parent="hm-8KG82vKNdujvCuvrx-7" source="hm-8KG82vKNdujvCuvrx-23" target="hm-8KG82vKNdujvCuvrx-17">
          <mxGeometry width="50" height="50" relative="1" as="geometry">
            <mxPoint x="-180" y="270" as="sourcePoint" />
            <mxPoint x="-150" y="230" as="targetPoint" />
          </mxGeometry>
        </mxCell>
        <mxCell id="hm-8KG82vKNdujvCuvrx-8" value="packaged elements" style="swimlane;swimlaneBody=1;swimlaneHead=1;horizontal=1;swimlaneLine=0;collapsible=0;fontStyle=0;strokeColor=#000000;strokeWidth=1;fontSize=12;fillColor=none;" vertex="1" parent="hm-8KG82vKNdujvCuvrx-4">
          <mxGeometry y="300" width="720" height="170" as="geometry" />
        </mxCell>
        <mxCell id="hm-8KG82vKNdujvCuvrx-9" value="openapi.yml" style="shape=note;whiteSpace=wrap;html=1;backgroundOutline=1;darkOpacity=0.05;size=17;" vertex="1" parent="hm-8KG82vKNdujvCuvrx-8">
          <mxGeometry x="90" y="80" width="120" height="60" as="geometry" />
        </mxCell>
        <mxCell id="hm-8KG82vKNdujvCuvrx-25" value="" style="endArrow=none;html=1;rounded=0;jumpStyle=gap;jumpSize=10;" edge="1" parent="hm-8KG82vKNdujvCuvrx-4" source="hm-8KG82vKNdujvCuvrx-9" target="hm-8KG82vKNdujvCuvrx-23">
          <mxGeometry width="50" height="50" relative="1" as="geometry">
            <mxPoint x="420" y="410" as="sourcePoint" />
            <mxPoint x="470" y="360" as="targetPoint" />
            <Array as="points">
              <mxPoint x="480" y="410" />
            </Array>
          </mxGeometry>
        </mxCell>
        <mxCell id="hm-8KG82vKNdujvCuvrx-10" value="" style="fontStyle=1;align=right;verticalAlign=middle;childLayout=stackLayout;horizontal=1;horizontalStack=0;resizeParent=1;resizeParentMax=0;resizeLast=0;marginBottom=0;allowArrows=0;connectable=0;strokeColor=#000000;strokeWidth=1;fontSize=12;fillColor=default;spacingBottom=0;spacingTop=0;shadow=1;" vertex="1" parent="1">
          <mxGeometry x="790" y="180" width="250" height="90" as="geometry" />
        </mxCell>
        <mxCell id="hm-8KG82vKNdujvCuvrx-11" value="&lt;span style=&quot;font-weight: normal;&quot;&gt;«component»&lt;/span&gt;&lt;font style=&quot;font-size: 16px;&quot;&gt;&lt;br&gt;registration-desk&lt;br&gt;&lt;/font&gt;" style="html=1;align=center;spacingLeft=4;verticalAlign=middle;strokeColor=none;fillColor=none;fontStyle=1;strokeWidth=1;fontSize=12;spacingTop=5;" vertex="1" parent="hm-8KG82vKNdujvCuvrx-10">
          <mxGeometry width="250" height="90" as="geometry" />
        </mxCell>
        <mxCell id="hm-8KG82vKNdujvCuvrx-12" value="" style="shape=component;jettyWidth=8;jettyHeight=4;fontSize=12;fillColor=default;strokeColor=default;strokeWidth=1;" vertex="1" parent="hm-8KG82vKNdujvCuvrx-11">
          <mxGeometry x="1" width="24" height="16" relative="1" as="geometry">
            <mxPoint x="-31" y="7" as="offset" />
          </mxGeometry>
        </mxCell>
        <mxCell id="hm-8KG82vKNdujvCuvrx-13" value="" style="fontStyle=1;align=right;verticalAlign=middle;childLayout=stackLayout;horizontal=1;horizontalStack=0;resizeParent=1;resizeParentMax=0;resizeLast=0;marginBottom=0;allowArrows=0;connectable=0;strokeColor=#000000;strokeWidth=1;fontSize=12;fillColor=default;spacingBottom=0;spacingTop=0;shadow=1;" vertex="1" parent="1">
          <mxGeometry x="790" y="400" width="250" height="90" as="geometry" />
        </mxCell>
        <mxCell id="hm-8KG82vKNdujvCuvrx-14" value="&lt;span style=&quot;font-weight: normal;&quot;&gt;«component»&lt;/span&gt;&lt;font style=&quot;font-size: 16px;&quot;&gt;&lt;br&gt;ksch-dart-client&lt;br&gt;&lt;/font&gt;" style="html=1;align=center;spacingLeft=4;verticalAlign=middle;strokeColor=none;fillColor=none;fontStyle=1;strokeWidth=1;fontSize=12;spacingTop=5;" vertex="1" parent="hm-8KG82vKNdujvCuvrx-13">
          <mxGeometry width="250" height="90" as="geometry" />
        </mxCell>
        <mxCell id="hm-8KG82vKNdujvCuvrx-15" value="" style="shape=component;jettyWidth=8;jettyHeight=4;fontSize=12;fillColor=default;strokeColor=default;strokeWidth=1;" vertex="1" parent="hm-8KG82vKNdujvCuvrx-14">
          <mxGeometry x="1" width="24" height="16" relative="1" as="geometry">
            <mxPoint x="-31" y="7" as="offset" />
          </mxGeometry>
        </mxCell>
        <mxCell id="hm-8KG82vKNdujvCuvrx-19" value="" style="fontStyle=1;align=right;verticalAlign=top;childLayout=stackLayout;horizontal=1;horizontalStack=0;resizeParent=1;resizeParentMax=0;resizeLast=0;marginBottom=0;allowArrows=0;connectable=0;strokeColor=#000000;strokeWidth=1;fontSize=12;fillColor=default;spacingBottom=0;spacingTop=0;shadow=1;" vertex="1" parent="1">
          <mxGeometry x="-510" y="259" width="270" height="67" as="geometry" />
        </mxCell>
        <mxCell id="hm-8KG82vKNdujvCuvrx-20" value="&lt;span style=&quot;font-weight: normal;&quot;&gt;«component»&lt;/span&gt;&lt;br&gt;&lt;font style=&quot;font-size: 16px;&quot;&gt;swagger-request-validator&lt;/font&gt;" style="html=1;align=center;spacingLeft=4;verticalAlign=top;strokeColor=none;fillColor=none;fontStyle=1;strokeWidth=1;fontSize=12;spacingTop=8;" vertex="1" parent="hm-8KG82vKNdujvCuvrx-19">
          <mxGeometry width="270" height="67" as="geometry" />
        </mxCell>
        <mxCell id="hm-8KG82vKNdujvCuvrx-21" value="" style="shape=component;jettyWidth=8;jettyHeight=4;fontSize=12;fillColor=default;strokeColor=default;strokeWidth=1;" vertex="1" parent="hm-8KG82vKNdujvCuvrx-20">
          <mxGeometry x="1" width="24" height="16" relative="1" as="geometry">
            <mxPoint x="-31" y="7" as="offset" />
          </mxGeometry>
        </mxCell>
        <mxCell id="hm-8KG82vKNdujvCuvrx-27" value="" style="endArrow=open;html=1;rounded=0;dashed=1;endFill=0;fontSize=12;endSize=10;startSize=10;jumpStyle=gap;jumpSize=10;" edge="1" parent="1" source="hm-8KG82vKNdujvCuvrx-17" target="hm-8KG82vKNdujvCuvrx-20">
          <mxGeometry width="50" height="50" relative="1" as="geometry">
            <mxPoint x="-240" y="450" as="sourcePoint" />
            <mxPoint x="-210" y="410" as="targetPoint" />
          </mxGeometry>
        </mxCell>
        <mxCell id="hm-8KG82vKNdujvCuvrx-28" value="" style="endArrow=open;html=1;rounded=0;dashed=1;endFill=0;fontSize=12;endSize=10;startSize=10;jumpStyle=gap;jumpSize=10;" edge="1" parent="1" source="hm-8KG82vKNdujvCuvrx-14" target="hm-8KG82vKNdujvCuvrx-4">
          <mxGeometry width="50" height="50" relative="1" as="geometry">
            <mxPoint x="890" y="710" as="sourcePoint" />
            <mxPoint x="830" y="610" as="targetPoint" />
          </mxGeometry>
        </mxCell>
        <mxCell id="hm-8KG82vKNdujvCuvrx-29" value="" style="endArrow=open;html=1;rounded=0;dashed=1;endFill=0;fontSize=12;endSize=10;startSize=10;jumpStyle=gap;jumpSize=10;" edge="1" parent="1" source="hm-8KG82vKNdujvCuvrx-11" target="hm-8KG82vKNdujvCuvrx-14">
          <mxGeometry width="50" height="50" relative="1" as="geometry">
            <mxPoint x="910" y="660" as="sourcePoint" />
            <mxPoint x="930" y="430" as="targetPoint" />
          </mxGeometry>
        </mxCell>
      </root>
    </mxGraphModel>
  </diagram>
</mxfile>
